<?xml version="1.0" encoding="UTF-8" standalone="no"?>
<svg
   xmlns:dc="http://purl.org/dc/elements/1.1/"
   xmlns:cc="http://creativecommons.org/ns#"
   xmlns:rdf="http://www.w3.org/1999/02/22-rdf-syntax-ns#"
   xmlns:svg="http://www.w3.org/2000/svg"
   xmlns="http://www.w3.org/2000/svg"
   xmlns:xlink="http://www.w3.org/1999/xlink"
   xmlns:sodipodi="http://sodipodi.sourceforge.net/DTD/sodipodi-0.dtd"
   xmlns:inkscape="http://www.inkscape.org/namespaces/inkscape"
   width="200mm"
   height="200mm"
   viewBox="0 0 200 200"
   version="1.1"
   id="svg2670"
   inkscape:version="1.0.2 (e86c870879, 2021-01-15)"
   sodipodi:docname="hh_logo.svg"
   inkscape:export-filename="/home/tester/Documents/my_logos/skull_v4/skull_board.png"
   inkscape:export-xdpi="95"
   inkscape:export-ydpi="95">
  <defs
     id="defs2664">
    <linearGradient
       inkscape:collect="always"
       id="linearGradient963">
      <stop
         style="stop-color:#ececec;stop-opacity:1;"
         offset="0"
         id="stop959" />
      <stop
         style="stop-color:#ececec;stop-opacity:0;"
         offset="1"
         id="stop961" />
    </linearGradient>
    <linearGradient
       inkscape:collect="always"
       id="linearGradient3590">
      <stop
         style="stop-color:#483d66;stop-opacity:1;"
         offset="0"
         id="stop3586" />
      <stop
         style="stop-color:#483d66;stop-opacity:0;"
         offset="1"
         id="stop3588" />
    </linearGradient>
    <linearGradient
       inkscape:collect="always"
       xlink:href="#linearGradient3590"
       id="linearGradient3592"
       x1="97.047417"
       y1="103.78288"
       x2="38.086849"
       y2="155.44733"
       gradientUnits="userSpaceOnUse"
       gradientTransform="translate(0,0.52916667)" />
    <linearGradient
       inkscape:collect="always"
       xlink:href="#linearGradient963"
       id="linearGradient965"
       x1="13.912492"
       y1="12.961101"
       x2="200.16258"
       y2="200.20255"
       gradientUnits="userSpaceOnUse" />
  </defs>
  <sodipodi:namedview
     id="base"
     pagecolor="#ffffff"
     bordercolor="#666666"
     borderopacity="1.0"
     inkscape:pageopacity="0.0"
     inkscape:pageshadow="2"
     inkscape:zoom="0.98994949"
     inkscape:cx="399.27989"
     inkscape:cy="478.52822"
     inkscape:document-units="mm"
     inkscape:current-layer="layer1"
     inkscape:document-rotation="0"
     showgrid="false"
     inkscape:window-width="2560"
     inkscape:window-height="1410"
     inkscape:window-x="1920"
     inkscape:window-y="0"
     inkscape:window-maximized="1"
     showguides="false">
    <inkscape:grid
       type="xygrid"
       id="grid3329" />
  </sodipodi:namedview>
  <metadata
     id="metadata2667">
    <rdf:RDF>
      <cc:Work
         rdf:about="">
        <dc:format>image/svg+xml</dc:format>
        <dc:type
           rdf:resource="http://purl.org/dc/dcmitype/StillImage" />
        <dc:title></dc:title>
      </cc:Work>
    </rdf:RDF>
  </metadata>
  <g
     inkscape:label="Warstwa 1"
     inkscape:groupmode="layer"
     id="layer1">
    <g
       id="g3795"
       transform="matrix(0.99987504,0,0,0.99885521,1.719054e-5,7.3343258e-5)"
       inkscape:export-xdpi="96.000053"
       inkscape:export-ydpi="96.000053">
      <rect
         style="fill:#ffffff;fill-opacity:1;stroke:#ff0000;stroke-width:0;stroke-linejoin:round"
         id="rect2129-7"
         width="200.02499"
         height="200.02499"
         x="0.13759172"
         y="0.17755127"
         ry="42.042759"
         rx="42.216366" />
      <rect
         style="fill:url(#linearGradient965);fill-opacity:1;stroke:#ff0000;stroke-width:0;stroke-linejoin:round"
         id="rect2129"
         width="200.02499"
         height="200.02499"
         x="0.13759172"
         y="0.17753124"
         ry="42.042759"
         rx="42.216366"
         inkscape:export-xdpi="95"
         inkscape:export-ydpi="95" />
      <path
         id="rect961-3-6-7-5-4-6"
         style="fill:#d40000;stroke:#ff0000;stroke-width:0.774999;stroke-linecap:round;stroke-linejoin:round;stroke-miterlimit:4;stroke-dasharray:none;stroke-opacity:1"
         d="m 100.05694,0.36070148 c -1.243972,0 -2.245857,1.00188562 -2.245857,2.24585772 V 17.202051 A 83.376576,83.376576 0 0 0 16.190226,98.264286 H 2.7946614 c -1.2439721,0 -2.24534093,1.001368 -2.24534093,2.245344 0,1.24397 1.00136883,2.24534 2.24534093,2.24534 H 16.187126 a 83.376576,83.376576 0 0 0 81.617756,81.16455 v 13.4214 c 0,1.24398 1.001884,2.24535 2.245858,2.24535 1.24397,0 2.24534,-1.00137 2.24534,-2.24535 v -13.4493 a 83.376576,83.376576 0 0 0 80.58733,-81.15629 h 14.60944 c 1.24397,0 2.24586,-1.00137 2.24586,-2.24534 0,-1.243973 -1.00189,-2.245858 -2.24586,-2.245858 h -14.61357 a 83.376576,83.376576 0 0 0 -80.577,-81.013659 V 2.6065592 c 0,-1.2439721 -1.00137,-2.24585772 -2.24534,-2.24585772 z M 97.811083,22.146452 V 36.70577 c 0,1.243973 1.001885,2.245341 2.245857,2.245341 1.24397,0 2.24534,-1.001368 2.24534,-2.245341 V 22.178491 a 78.40043,78.40043 0 0 1 75.56903,76.065641 h -14.47767 c -1.24397,0 -2.24534,1.001885 -2.24534,2.245858 0,1.24397 1.00137,2.24534 2.24534,2.24534 h 14.48026 a 78.40043,78.40043 0 0 1 -75.57782,76.14419 v -15.63781 c 0,-1.24397 -1.00137,-2.24534 -2.24534,-2.24534 -1.243974,0 -2.245858,1.00137 -2.245858,2.24534 v 15.66933 A 78.40043,78.40043 0 0 1 21.13566,102.75497 h 15.758213 c 1.24397,0 2.245857,-1.00137 2.245857,-2.24534 0,-1.243976 -1.001887,-2.245344 -2.245857,-2.245344 H 21.136694 A 78.40043,78.40043 0 0 1 97.811083,22.146452 Z" />
      <path
         id="path897-9-0-6-3"
         style="fill:#000000;fill-opacity:1;stroke:#ffffff;stroke-width:0.791473;stroke-miterlimit:4;stroke-dasharray:none;stroke-opacity:1"
         d="m 119.40371,52.677937 0.95477,1.65562 c 0.5251,0.91054 3.55349,6.14621 6.7286,11.63568 l 5.7727,9.98122 1.18467,-0.70069 c 0.65175,-0.38544 1.58499,-0.94968 2.0726,-1.25329 0.6025,-0.37515 0.97533,-0.4209 1.1654,-0.14233 0.15384,0.22541 1.8174,1.34424 3.69671,2.48626 1.87932,1.14203 3.54138,2.26714 3.69331,2.49983 0.15194,0.2327 0.27744,2.59442 0.27861,5.24827 l 0.003,4.82444 -2.99565,2.33599 c -1.80372,1.40631 -2.87364,2.49613 -2.68985,2.7394 0.16785,0.22216 2.36658,3.05932 4.88591,6.306043 l 4.58122,5.90373 5.83278,-5.32171 c 3.2081,-2.926683 6.35216,-5.758643 6.98681,-6.293623 l 1.15404,-0.97304 -11.86253,-20.36247 -11.86255,-20.36246 -9.78993,-0.10277 z m -9.02883,0.008 -24.241501,0.0994 -24.24264,0.0994 -11.84328,20.32969 c -6.51397,11.18138 -11.70565,20.46036 -11.53634,20.62014 2.78001,2.62358 17.29401,15.862533 17.46308,15.846513 0.18639,0.16159 1.60005,1.45656 3.14174,2.8784 l 2.80311,2.58574 33.5673,7.76821 v 0 0 c 3.21484,6.83587 3.37306,6.86867 4.32939,6.86867 0.955421,0 4.142011,-6.92152 4.142011,-6.92152 v 0 0 l 35.02358,-7.71532 1.96387,-1.87038 1.96502,-1.86921 -4.97653,-6.37387 c -2.73677,-3.50528 -5.01826,-6.431613 -5.07051,-6.502683 -0.0521,-0.0709 -3.19472,2.384953 -4.78396,3.588143 -1.62741,1.23206 -4.86553,3.71805 -4.86553,3.71805 -0.0771,0.0589 -2.72487,-1.2166 -5.83952,-2.70321 l -5.66399,-2.70326 v -6.412293 c 0,-4.5978 0.1282,-6.41341 0.45075,-6.41341 0.24745,0 2.21491,-1.02132 4.37285,-2.27039 2.15798,-1.24909 5.18376,-2.99837 6.72408,-3.88649 l 2.80087,-1.61492 -4.10558,-7.07229 c -2.25817,-3.89008 -5.78706,-9.99759 -7.8419,-13.57282 z m -49.334701,20.88996 c 0.92801,-0.0804 3.09619,1.09213 12.95205,6.73325 l 12.40503,7.10053 0.11894,5.62461 c 0.0657,3.09359 0.0622,6.03527 -0.009,6.53769 -0.10743,0.757553 -1.09653,1.372253 -5.78743,3.600573 -4.87993,2.3181 -5.7531,2.61929 -6.35823,2.19016 -0.38584,-0.27358 -2.72903,-2.05487 -5.20757,-3.95768 l -13.21487,-10.328123 -2.54148,-1.99355 -0.0137,-2.96993 c -0.008,-1.634 -0.11428,-3.95783 -0.2367,-5.1635 l -0.22312,-2.19242 3.44414,-2.30547 c 1.8941,-1.26781 3.84383,-2.51525 4.33208,-2.7733 0.10076,-0.0534 0.2072,-0.0913 0.33978,-0.10276 z m 74.704251,44.639653 c -0.12824,-0.0231 -0.27179,0.0713 -0.38395,0.32435 -0.0712,0.16074 -2.43002,2.35253 -5.24154,4.86968 l -5.11241,4.57587 -0.0474,5.31376 c -0.0263,2.92264 -0.1546,6.14365 -0.28425,7.15705 -0.24221,1.89324 -0.0584,2.20249 0.8041,1.35726 0.27213,-0.26669 2.70883,-2.47172 5.41482,-4.90017 l 4.91989,-4.41537 0.0282,-6.25182 c 0.0159,-3.43871 0.10284,-6.64533 0.19252,-7.12537 0.0938,-0.50177 -0.0762,-0.86683 -0.28993,-0.90524 z m -72.655431,0.0949 c -0.28834,-0.0376 -0.30078,0.57336 -0.18234,2.16758 0.0911,1.22677 0.19193,4.44804 0.22425,7.15816 l 0.0589,4.92848 4.88703,4.38143 c 2.68777,2.4103 5.07638,4.58693 5.30836,4.83578 0.23197,0.24891 0.51904,0.33545 0.63764,0.19326 0.11858,-0.14223 0.145,-3.34889 0.0589,-7.12651 l -0.15631,-6.86886 -4.88137,-4.38033 c -2.68503,-2.40959 -5.10532,-4.59958 -5.37743,-4.86629 -0.25891,-0.25371 -0.44657,-0.40554 -0.57762,-0.42267 z m 15.38369,6.55699 c -0.25436,-0.0167 -0.32199,3.3528 -0.1948,9.74722 l 0.1948,9.77328 8.16355,4.93633 c 4.4901,2.71517 8.33821,4.95163 8.55202,4.96915 0.25444,0.0209 0.32202,-3.34707 0.19478,-9.74611 l -0.19478,-9.77669 -8.16356,-4.93857 c -4.49009,-2.71632 -8.33822,-4.95043 -8.55201,-4.96461 z m 41.505251,0 c -0.16405,0.0144 -3.97133,2.2481 -8.46143,4.96457 l -8.16356,4.93975 -0.10418,9.77555 c -0.0572,5.3769 0.0307,9.76362 0.1948,9.74726 0.16402,-0.0162 3.97131,-2.25011 8.46142,-4.96349 l 8.16356,-4.93411 0.1042,-9.77665 c 0.0571,-5.37762 -0.0307,-9.76685 -0.1948,-9.75291 z"
         sodipodi:nodetypes="cscccsssscccsccccccccccccccccccccssccccccsasccssssccccscccssscccccccsssscccsscccsssscccsscccssssccccccsscccscccsccsc" />
      <path
         id="path897-9-0-6"
         style="fill:url(#linearGradient3592);fill-opacity:1;stroke:#ffffff;stroke-width:0.791473;stroke-miterlimit:4;stroke-dasharray:none;stroke-opacity:0.946385"
         d="m 119.40371,52.67793 0.95477,1.655628 c 0.5251,0.91054 3.55349,6.146207 6.7286,11.635675 l 5.7727,9.981219 1.18467,-0.700684 c 0.65175,-0.385441 1.58499,-0.949684 2.0726,-1.253292 0.6025,-0.375156 0.97533,-0.420905 1.1654,-0.142329 0.15384,0.225407 1.8174,1.344239 3.69671,2.486258 1.87932,1.142028 3.54138,2.267137 3.69331,2.49983 0.15194,0.232694 0.27744,2.594421 0.27861,5.248264 l 0.003,4.82445 -2.99565,2.335986 c -1.80372,1.406306 -2.87364,2.49613 -2.68985,2.739399 0.16785,0.222162 2.36658,3.059323 4.88591,6.306036 l 4.58122,5.90374 5.83278,-5.32171 c 3.2081,-2.926684 6.35216,-5.75865 6.98681,-6.293631 l 1.15404,-0.973036 -11.86253,-20.362466 -11.86255,-20.362466 -9.78993,-0.102768 z m -9.02883,0.008 -24.241498,0.09943 -24.242645,0.09944 -11.843274,20.329693 c -6.513976,11.181382 -11.705654,20.460356 -11.536345,20.620144 2.780007,2.623573 17.294011,15.862533 17.463086,15.846513 0.186382,0.16159 1.600045,1.45656 3.141733,2.8784 l 2.803114,2.58574 33.567304,7.76821 v 0 0 c 3.214838,6.83588 3.373059,6.86868 4.329388,6.86868 0.955417,0 4.142007,-6.92153 4.142007,-6.92153 v 0 0 l 35.02358,-7.71532 1.96387,-1.87038 1.96502,-1.86921 -4.97653,-6.37387 c -2.73677,-3.50528 -5.01826,-6.431615 -5.07051,-6.502685 -0.0521,-0.07094 -3.19472,2.384955 -4.78396,3.588145 -1.62741,1.23206 -4.86553,3.71805 -4.86553,3.71805 -0.0771,0.0589 -2.72487,-1.2166 -5.83952,-2.70321 l -5.66399,-2.70327 v -6.412285 c 0,-4.597798 0.1282,-6.413409 0.45075,-6.413409 0.24745,0 2.21491,-1.021325 4.37285,-2.270396 2.15798,-1.249081 5.18376,-2.998368 6.72408,-3.886487 l 2.80087,-1.614916 -4.10558,-7.072292 c -2.25817,-3.890084 -5.78706,-9.997586 -7.8419,-13.572817 z M 61.040178,73.575898 c 0.928012,-0.08042 3.096194,1.092126 12.952053,6.733242 l 12.405028,7.100538 0.118942,5.624604 c 0.06567,3.093587 0.0622,6.035276 -0.0092,6.537693 -0.107434,0.757545 -1.096534,1.372255 -5.787432,3.600575 -4.879931,2.3181 -5.753095,2.61929 -6.35823,2.19016 -0.385836,-0.27358 -2.729025,-2.05487 -5.207564,-3.95768 l -13.214871,-10.328131 -2.541489,-1.993547 -0.0137,-2.969931 c -0.0082,-1.634 -0.114288,-3.957824 -0.236708,-5.163501 l -0.223115,-2.192416 3.444142,-2.305467 c 1.894097,-1.267815 3.843829,-2.51525 4.332078,-2.773303 0.100755,-0.05337 0.207198,-0.09133 0.339775,-0.102764 z m 74.704252,44.639652 c -0.12824,-0.0231 -0.27179,0.0713 -0.38395,0.32435 -0.0712,0.16074 -2.43002,2.35253 -5.24154,4.86968 l -5.11241,4.57588 -0.0474,5.31376 c -0.0263,2.92264 -0.1546,6.14365 -0.28425,7.15705 -0.24221,1.89324 -0.0584,2.20249 0.8041,1.35726 0.27213,-0.26669 2.70883,-2.47172 5.41482,-4.90017 l 4.91989,-4.41537 0.0282,-6.25183 c 0.0159,-3.43871 0.10284,-6.64533 0.19252,-7.12537 0.0938,-0.50177 -0.0762,-0.86683 -0.28993,-0.90524 z m -72.655432,0.0949 c -0.288334,-0.0376 -0.300782,0.57336 -0.182341,2.16758 0.09114,1.22677 0.191936,4.44804 0.224249,7.15817 l 0.05892,4.92848 4.887039,4.38143 c 2.687762,2.4103 5.076377,4.58693 5.30835,4.83578 0.231972,0.2489 0.519048,0.33545 0.637642,0.19326 0.118585,-0.14223 0.145006,-3.34889 0.05892,-7.12651 l -0.156309,-6.86886 -4.881372,-4.38034 c -2.68503,-2.40959 -5.105315,-4.59958 -5.377426,-4.86629 -0.258905,-0.25371 -0.446565,-0.40554 -0.577619,-0.42267 z m 15.383691,6.55699 c -0.254363,-0.0167 -0.321987,3.35281 -0.1948,9.74723 l 0.1948,9.77328 8.163549,4.93633 c 4.490105,2.71517 8.338209,4.95163 8.552024,4.96915 0.254435,0.0209 0.322019,-3.34707 0.194781,-9.74611 l -0.194781,-9.77669 -8.163559,-4.93857 c -4.490094,-2.71632 -8.338218,-4.95044 -8.552014,-4.96462 z m 41.505251,0 c -0.16405,0.0144 -3.97133,2.24811 -8.46143,4.96458 l -8.16356,4.93975 -0.10418,9.77555 c -0.0572,5.3769 0.0307,9.76362 0.1948,9.74726 0.16402,-0.0162 3.97131,-2.25011 8.46142,-4.96349 l 8.16356,-4.93411 0.1042,-9.77665 c 0.0571,-5.37762 -0.0307,-9.76686 -0.1948,-9.75292 z"
         sodipodi:nodetypes="cscccsssscccsccccccccccccccccccccssccccccsasccssssccccscccssscccccccsssscccsscccsssscccsscccssssccccccsscccscccsccsc" />
      <circle
         style="fill:#d40000;fill-opacity:1;stroke:#ff0000;stroke-width:1;stroke-linejoin:round;stroke-miterlimit:4;stroke-dasharray:none;stroke-opacity:0.439216"
         id="path1689-7-1"
         cx="99.397995"
         cy="101.77357"
         r="2.4811587" />
    </g>
  </g>
  <script
     id="mesh_polyfill"
     type="text/javascript">
!function(){const t=&quot;http://www.w3.org/2000/svg&quot;,e=&quot;http://www.w3.org/1999/xlink&quot;,s=&quot;http://www.w3.org/1999/xhtml&quot;,r=2;if(document.createElementNS(t,&quot;meshgradient&quot;).x)return;const n=(t,e,s,r)=&gt;{let n=new x(.5*(e.x+s.x),.5*(e.y+s.y)),o=new x(.5*(t.x+e.x),.5*(t.y+e.y)),i=new x(.5*(s.x+r.x),.5*(s.y+r.y)),a=new x(.5*(n.x+o.x),.5*(n.y+o.y)),h=new x(.5*(n.x+i.x),.5*(n.y+i.y)),l=new x(.5*(a.x+h.x),.5*(a.y+h.y));return[[t,o,a,l],[l,h,i,r]]},o=t=&gt;{let e=t[0].distSquared(t[1]),s=t[2].distSquared(t[3]),r=.25*t[0].distSquared(t[2]),n=.25*t[1].distSquared(t[3]),o=e&gt;s?e:s,i=r&gt;n?r:n;return 18*(o&gt;i?o:i)},i=(t,e)=&gt;Math.sqrt(t.distSquared(e)),a=(t,e)=&gt;t.scale(2/3).add(e.scale(1/3)),h=t=&gt;{let e,s,r,n,o,i,a,h=new g;return t.match(/(\w+\(\s*[^)]+\))+/g).forEach(t=&gt;{let l=t.match(/[\w.-]+/g),d=l.shift();switch(d){case&quot;translate&quot;:2===l.length?e=new g(1,0,0,1,l[0],l[1]):(console.error(&quot;mesh.js: translate does not have 2 arguments!&quot;),e=new g(1,0,0,1,0,0)),h=h.append(e);break;case&quot;scale&quot;:1===l.length?s=new g(l[0],0,0,l[0],0,0):2===l.length?s=new g(l[0],0,0,l[1],0,0):(console.error(&quot;mesh.js: scale does not have 1 or 2 arguments!&quot;),s=new g(1,0,0,1,0,0)),h=h.append(s);break;case&quot;rotate&quot;:if(3===l.length&amp;&amp;(e=new g(1,0,0,1,l[1],l[2]),h=h.append(e)),l[0]){r=l[0]*Math.PI/180;let t=Math.cos(r),e=Math.sin(r);Math.abs(t)&lt;1e-16&amp;&amp;(t=0),Math.abs(e)&lt;1e-16&amp;&amp;(e=0),a=new g(t,e,-e,t,0,0),h=h.append(a)}else console.error(&quot;math.js: No argument to rotate transform!&quot;);3===l.length&amp;&amp;(e=new g(1,0,0,1,-l[1],-l[2]),h=h.append(e));break;case&quot;skewX&quot;:l[0]?(r=l[0]*Math.PI/180,n=Math.tan(r),o=new g(1,0,n,1,0,0),h=h.append(o)):console.error(&quot;math.js: No argument to skewX transform!&quot;);break;case&quot;skewY&quot;:l[0]?(r=l[0]*Math.PI/180,n=Math.tan(r),i=new g(1,n,0,1,0,0),h=h.append(i)):console.error(&quot;math.js: No argument to skewY transform!&quot;);break;case&quot;matrix&quot;:6===l.length?h=h.append(new g(...l)):console.error(&quot;math.js: Incorrect number of arguments for matrix!&quot;);break;default:console.error(&quot;mesh.js: Unhandled transform type: &quot;+d)}}),h},l=t=&gt;{let e=[],s=t.split(/[ ,]+/);for(let t=0,r=s.length-1;t&lt;r;t+=2)e.push(new x(parseFloat(s[t]),parseFloat(s[t+1])));return e},d=(t,e)=&gt;{for(let s in e)t.setAttribute(s,e[s])},c=(t,e,s,r,n)=&gt;{let o,i,a=[0,0,0,0];for(let h=0;h&lt;3;++h)e[h]&lt;t[h]&amp;&amp;e[h]&lt;s[h]||t[h]&lt;e[h]&amp;&amp;s[h]&lt;e[h]?a[h]=0:(a[h]=.5*((e[h]-t[h])/r+(s[h]-e[h])/n),o=Math.abs(3*(e[h]-t[h])/r),i=Math.abs(3*(s[h]-e[h])/n),a[h]&gt;o?a[h]=o:a[h]&gt;i&amp;&amp;(a[h]=i));return a},u=[[1,0,0,0,0,0,0,0,0,0,0,0,0,0,0,0],[0,0,0,0,1,0,0,0,0,0,0,0,0,0,0,0],[-3,3,0,0,-2,-1,0,0,0,0,0,0,0,0,0,0],[2,-2,0,0,1,1,0,0,0,0,0,0,0,0,0,0],[0,0,0,0,0,0,0,0,1,0,0,0,0,0,0,0],[0,0,0,0,0,0,0,0,0,0,0,0,1,0,0,0],[0,0,0,0,0,0,0,0,-3,3,0,0,-2,-1,0,0],[0,0,0,0,0,0,0,0,2,-2,0,0,1,1,0,0],[-3,0,3,0,0,0,0,0,-2,0,-1,0,0,0,0,0],[0,0,0,0,-3,0,3,0,0,0,0,0,-2,0,-1,0],[9,-9,-9,9,6,3,-6,-3,6,-6,3,-3,4,2,2,1],[-6,6,6,-6,-3,-3,3,3,-4,4,-2,2,-2,-2,-1,-1],[2,0,-2,0,0,0,0,0,1,0,1,0,0,0,0,0],[0,0,0,0,2,0,-2,0,0,0,0,0,1,0,1,0],[-6,6,6,-6,-4,-2,4,2,-3,3,-3,3,-2,-1,-2,-1],[4,-4,-4,4,2,2,-2,-2,2,-2,2,-2,1,1,1,1]],f=t=&gt;{let e=[];for(let s=0;s&lt;16;++s){e[s]=0;for(let r=0;r&lt;16;++r)e[s]+=u[s][r]*t[r]}return e},p=(t,e,s)=&gt;{const r=e*e,n=s*s,o=e*e*e,i=s*s*s;return t[0]+t[1]*e+t[2]*r+t[3]*o+t[4]*s+t[5]*s*e+t[6]*s*r+t[7]*s*o+t[8]*n+t[9]*n*e+t[10]*n*r+t[11]*n*o+t[12]*i+t[13]*i*e+t[14]*i*r+t[15]*i*o},y=t=&gt;{let e=[],s=[],r=[];for(let s=0;s&lt;4;++s)e[s]=[],e[s][0]=n(t[0][s],t[1][s],t[2][s],t[3][s]),e[s][1]=[],e[s][1].push(...n(...e[s][0][0])),e[s][1].push(...n(...e[s][0][1])),e[s][2]=[],e[s][2].push(...n(...e[s][1][0])),e[s][2].push(...n(...e[s][1][1])),e[s][2].push(...n(...e[s][1][2])),e[s][2].push(...n(...e[s][1][3]));for(let t=0;t&lt;8;++t){s[t]=[];for(let r=0;r&lt;4;++r)s[t][r]=[],s[t][r][0]=n(e[0][2][t][r],e[1][2][t][r],e[2][2][t][r],e[3][2][t][r]),s[t][r][1]=[],s[t][r][1].push(...n(...s[t][r][0][0])),s[t][r][1].push(...n(...s[t][r][0][1])),s[t][r][2]=[],s[t][r][2].push(...n(...s[t][r][1][0])),s[t][r][2].push(...n(...s[t][r][1][1])),s[t][r][2].push(...n(...s[t][r][1][2])),s[t][r][2].push(...n(...s[t][r][1][3]))}for(let t=0;t&lt;8;++t){r[t]=[];for(let e=0;e&lt;8;++e)r[t][e]=[],r[t][e][0]=s[t][0][2][e],r[t][e][1]=s[t][1][2][e],r[t][e][2]=s[t][2][2][e],r[t][e][3]=s[t][3][2][e]}return r};class x{constructor(t,e){this.x=t||0,this.y=e||0}toString(){return`(x=${this.x}, y=${this.y})`}clone(){return new x(this.x,this.y)}add(t){return new x(this.x+t.x,this.y+t.y)}scale(t){return void 0===t.x?new x(this.x*t,this.y*t):new x(this.x*t.x,this.y*t.y)}distSquared(t){let e=this.x-t.x,s=this.y-t.y;return e*e+s*s}transform(t){let e=this.x*t.a+this.y*t.c+t.e,s=this.x*t.b+this.y*t.d+t.f;return new x(e,s)}}class g{constructor(t,e,s,r,n,o){void 0===t?(this.a=1,this.b=0,this.c=0,this.d=1,this.e=0,this.f=0):(this.a=t,this.b=e,this.c=s,this.d=r,this.e=n,this.f=o)}toString(){return`affine: ${this.a} ${this.c} ${this.e} \n       ${this.b} ${this.d} ${this.f}`}append(t){t instanceof g||console.error(&quot;mesh.js: argument to Affine.append is not affine!&quot;);let e=this.a*t.a+this.c*t.b,s=this.b*t.a+this.d*t.b,r=this.a*t.c+this.c*t.d,n=this.b*t.c+this.d*t.d,o=this.a*t.e+this.c*t.f+this.e,i=this.b*t.e+this.d*t.f+this.f;return new g(e,s,r,n,o,i)}}class w{constructor(t,e){this.nodes=t,this.colors=e}paintCurve(t,e){if(o(this.nodes)&gt;r){const s=n(...this.nodes);let r=[[],[]],o=[[],[]];for(let t=0;t&lt;4;++t)r[0][t]=this.colors[0][t],r[1][t]=(this.colors[0][t]+this.colors[1][t])/2,o[0][t]=r[1][t],o[1][t]=this.colors[1][t];let i=new w(s[0],r),a=new w(s[1],o);i.paintCurve(t,e),a.paintCurve(t,e)}else{let s=Math.round(this.nodes[0].x);if(s&gt;=0&amp;&amp;s&lt;e){let r=4*(~~this.nodes[0].y*e+s);t[r]=Math.round(this.colors[0][0]),t[r+1]=Math.round(this.colors[0][1]),t[r+2]=Math.round(this.colors[0][2]),t[r+3]=Math.round(this.colors[0][3])}}}}class m{constructor(t,e){this.nodes=t,this.colors=e}split(){let t=[[],[],[],[]],e=[[],[],[],[]],s=[[[],[]],[[],[]]],r=[[[],[]],[[],[]]];for(let s=0;s&lt;4;++s){const r=n(this.nodes[0][s],this.nodes[1][s],this.nodes[2][s],this.nodes[3][s]);t[0][s]=r[0][0],t[1][s]=r[0][1],t[2][s]=r[0][2],t[3][s]=r[0][3],e[0][s]=r[1][0],e[1][s]=r[1][1],e[2][s]=r[1][2],e[3][s]=r[1][3]}for(let t=0;t&lt;4;++t)s[0][0][t]=this.colors[0][0][t],s[0][1][t]=this.colors[0][1][t],s[1][0][t]=(this.colors[0][0][t]+this.colors[1][0][t])/2,s[1][1][t]=(this.colors[0][1][t]+this.colors[1][1][t])/2,r[0][0][t]=s[1][0][t],r[0][1][t]=s[1][1][t],r[1][0][t]=this.colors[1][0][t],r[1][1][t]=this.colors[1][1][t];return[new m(t,s),new m(e,r)]}paint(t,e){let s,n=!1;for(let t=0;t&lt;4;++t)if((s=o([this.nodes[0][t],this.nodes[1][t],this.nodes[2][t],this.nodes[3][t]]))&gt;r){n=!0;break}if(n){let s=this.split();s[0].paint(t,e),s[1].paint(t,e)}else{new w([...this.nodes[0]],[...this.colors[0]]).paintCurve(t,e)}}}class b{constructor(t){this.readMesh(t),this.type=t.getAttribute(&quot;type&quot;)||&quot;bilinear&quot;}readMesh(t){let e=[[]],s=[[]],r=Number(t.getAttribute(&quot;x&quot;)),n=Number(t.getAttribute(&quot;y&quot;));e[0][0]=new x(r,n);let o=t.children;for(let t=0,r=o.length;t&lt;r;++t){e[3*t+1]=[],e[3*t+2]=[],e[3*t+3]=[],s[t+1]=[];let r=o[t].children;for(let n=0,o=r.length;n&lt;o;++n){let o=r[n].children;for(let r=0,i=o.length;r&lt;i;++r){let i=r;0!==t&amp;&amp;++i;let h,d=o[r].getAttribute(&quot;path&quot;),c=&quot;l&quot;;null!=d&amp;&amp;(c=(h=d.match(/\s*([lLcC])\s*(.*)/))[1]);let u=l(h[2]);switch(c){case&quot;l&quot;:0===i?(e[3*t][3*n+3]=u[0].add(e[3*t][3*n]),e[3*t][3*n+1]=a(e[3*t][3*n],e[3*t][3*n+3]),e[3*t][3*n+2]=a(e[3*t][3*n+3],e[3*t][3*n])):1===i?(e[3*t+3][3*n+3]=u[0].add(e[3*t][3*n+3]),e[3*t+1][3*n+3]=a(e[3*t][3*n+3],e[3*t+3][3*n+3]),e[3*t+2][3*n+3]=a(e[3*t+3][3*n+3],e[3*t][3*n+3])):2===i?(0===n&amp;&amp;(e[3*t+3][3*n+0]=u[0].add(e[3*t+3][3*n+3])),e[3*t+3][3*n+1]=a(e[3*t+3][3*n],e[3*t+3][3*n+3]),e[3*t+3][3*n+2]=a(e[3*t+3][3*n+3],e[3*t+3][3*n])):(e[3*t+1][3*n]=a(e[3*t][3*n],e[3*t+3][3*n]),e[3*t+2][3*n]=a(e[3*t+3][3*n],e[3*t][3*n]));break;case&quot;L&quot;:0===i?(e[3*t][3*n+3]=u[0],e[3*t][3*n+1]=a(e[3*t][3*n],e[3*t][3*n+3]),e[3*t][3*n+2]=a(e[3*t][3*n+3],e[3*t][3*n])):1===i?(e[3*t+3][3*n+3]=u[0],e[3*t+1][3*n+3]=a(e[3*t][3*n+3],e[3*t+3][3*n+3]),e[3*t+2][3*n+3]=a(e[3*t+3][3*n+3],e[3*t][3*n+3])):2===i?(0===n&amp;&amp;(e[3*t+3][3*n+0]=u[0]),e[3*t+3][3*n+1]=a(e[3*t+3][3*n],e[3*t+3][3*n+3]),e[3*t+3][3*n+2]=a(e[3*t+3][3*n+3],e[3*t+3][3*n])):(e[3*t+1][3*n]=a(e[3*t][3*n],e[3*t+3][3*n]),e[3*t+2][3*n]=a(e[3*t+3][3*n],e[3*t][3*n]));break;case&quot;c&quot;:0===i?(e[3*t][3*n+1]=u[0].add(e[3*t][3*n]),e[3*t][3*n+2]=u[1].add(e[3*t][3*n]),e[3*t][3*n+3]=u[2].add(e[3*t][3*n])):1===i?(e[3*t+1][3*n+3]=u[0].add(e[3*t][3*n+3]),e[3*t+2][3*n+3]=u[1].add(e[3*t][3*n+3]),e[3*t+3][3*n+3]=u[2].add(e[3*t][3*n+3])):2===i?(e[3*t+3][3*n+2]=u[0].add(e[3*t+3][3*n+3]),e[3*t+3][3*n+1]=u[1].add(e[3*t+3][3*n+3]),0===n&amp;&amp;(e[3*t+3][3*n+0]=u[2].add(e[3*t+3][3*n+3]))):(e[3*t+2][3*n]=u[0].add(e[3*t+3][3*n]),e[3*t+1][3*n]=u[1].add(e[3*t+3][3*n]));break;case&quot;C&quot;:0===i?(e[3*t][3*n+1]=u[0],e[3*t][3*n+2]=u[1],e[3*t][3*n+3]=u[2]):1===i?(e[3*t+1][3*n+3]=u[0],e[3*t+2][3*n+3]=u[1],e[3*t+3][3*n+3]=u[2]):2===i?(e[3*t+3][3*n+2]=u[0],e[3*t+3][3*n+1]=u[1],0===n&amp;&amp;(e[3*t+3][3*n+0]=u[2])):(e[3*t+2][3*n]=u[0],e[3*t+1][3*n]=u[1]);break;default:console.error(&quot;mesh.js: &quot;+c+&quot; invalid path type.&quot;)}if(0===t&amp;&amp;0===n||r&gt;0){let e=window.getComputedStyle(o[r]).stopColor.match(/^rgb\s*\(\s*(\d+)\s*,\s*(\d+)\s*,\s*(\d+)\s*\)$/i),a=window.getComputedStyle(o[r]).stopOpacity,h=255;a&amp;&amp;(h=Math.floor(255*a)),e&amp;&amp;(0===i?(s[t][n]=[],s[t][n][0]=Math.floor(e[1]),s[t][n][1]=Math.floor(e[2]),s[t][n][2]=Math.floor(e[3]),s[t][n][3]=h):1===i?(s[t][n+1]=[],s[t][n+1][0]=Math.floor(e[1]),s[t][n+1][1]=Math.floor(e[2]),s[t][n+1][2]=Math.floor(e[3]),s[t][n+1][3]=h):2===i?(s[t+1][n+1]=[],s[t+1][n+1][0]=Math.floor(e[1]),s[t+1][n+1][1]=Math.floor(e[2]),s[t+1][n+1][2]=Math.floor(e[3]),s[t+1][n+1][3]=h):3===i&amp;&amp;(s[t+1][n]=[],s[t+1][n][0]=Math.floor(e[1]),s[t+1][n][1]=Math.floor(e[2]),s[t+1][n][2]=Math.floor(e[3]),s[t+1][n][3]=h))}}e[3*t+1][3*n+1]=new x,e[3*t+1][3*n+2]=new x,e[3*t+2][3*n+1]=new x,e[3*t+2][3*n+2]=new x,e[3*t+1][3*n+1].x=(-4*e[3*t][3*n].x+6*(e[3*t][3*n+1].x+e[3*t+1][3*n].x)+-2*(e[3*t][3*n+3].x+e[3*t+3][3*n].x)+3*(e[3*t+3][3*n+1].x+e[3*t+1][3*n+3].x)+-1*e[3*t+3][3*n+3].x)/9,e[3*t+1][3*n+2].x=(-4*e[3*t][3*n+3].x+6*(e[3*t][3*n+2].x+e[3*t+1][3*n+3].x)+-2*(e[3*t][3*n].x+e[3*t+3][3*n+3].x)+3*(e[3*t+3][3*n+2].x+e[3*t+1][3*n].x)+-1*e[3*t+3][3*n].x)/9,e[3*t+2][3*n+1].x=(-4*e[3*t+3][3*n].x+6*(e[3*t+3][3*n+1].x+e[3*t+2][3*n].x)+-2*(e[3*t+3][3*n+3].x+e[3*t][3*n].x)+3*(e[3*t][3*n+1].x+e[3*t+2][3*n+3].x)+-1*e[3*t][3*n+3].x)/9,e[3*t+2][3*n+2].x=(-4*e[3*t+3][3*n+3].x+6*(e[3*t+3][3*n+2].x+e[3*t+2][3*n+3].x)+-2*(e[3*t+3][3*n].x+e[3*t][3*n+3].x)+3*(e[3*t][3*n+2].x+e[3*t+2][3*n].x)+-1*e[3*t][3*n].x)/9,e[3*t+1][3*n+1].y=(-4*e[3*t][3*n].y+6*(e[3*t][3*n+1].y+e[3*t+1][3*n].y)+-2*(e[3*t][3*n+3].y+e[3*t+3][3*n].y)+3*(e[3*t+3][3*n+1].y+e[3*t+1][3*n+3].y)+-1*e[3*t+3][3*n+3].y)/9,e[3*t+1][3*n+2].y=(-4*e[3*t][3*n+3].y+6*(e[3*t][3*n+2].y+e[3*t+1][3*n+3].y)+-2*(e[3*t][3*n].y+e[3*t+3][3*n+3].y)+3*(e[3*t+3][3*n+2].y+e[3*t+1][3*n].y)+-1*e[3*t+3][3*n].y)/9,e[3*t+2][3*n+1].y=(-4*e[3*t+3][3*n].y+6*(e[3*t+3][3*n+1].y+e[3*t+2][3*n].y)+-2*(e[3*t+3][3*n+3].y+e[3*t][3*n].y)+3*(e[3*t][3*n+1].y+e[3*t+2][3*n+3].y)+-1*e[3*t][3*n+3].y)/9,e[3*t+2][3*n+2].y=(-4*e[3*t+3][3*n+3].y+6*(e[3*t+3][3*n+2].y+e[3*t+2][3*n+3].y)+-2*(e[3*t+3][3*n].y+e[3*t][3*n+3].y)+3*(e[3*t][3*n+2].y+e[3*t+2][3*n].y)+-1*e[3*t][3*n].y)/9}}this.nodes=e,this.colors=s}paintMesh(t,e){let s=(this.nodes.length-1)/3,r=(this.nodes[0].length-1)/3;if(&quot;bilinear&quot;===this.type||s&lt;2||r&lt;2){let n;for(let o=0;o&lt;s;++o)for(let s=0;s&lt;r;++s){let r=[];for(let t=3*o,e=3*o+4;t&lt;e;++t)r.push(this.nodes[t].slice(3*s,3*s+4));let i=[];i.push(this.colors[o].slice(s,s+2)),i.push(this.colors[o+1].slice(s,s+2)),(n=new m(r,i)).paint(t,e)}}else{let n,o,a,h,l,d,u;const x=s,g=r;s++,r++;let w=new Array(s);for(let t=0;t&lt;s;++t){w[t]=new Array(r);for(let e=0;e&lt;r;++e)w[t][e]=[],w[t][e][0]=this.nodes[3*t][3*e],w[t][e][1]=this.colors[t][e]}for(let t=0;t&lt;s;++t)for(let e=0;e&lt;r;++e)0!==t&amp;&amp;t!==x&amp;&amp;(n=i(w[t-1][e][0],w[t][e][0]),o=i(w[t+1][e][0],w[t][e][0]),w[t][e][2]=c(w[t-1][e][1],w[t][e][1],w[t+1][e][1],n,o)),0!==e&amp;&amp;e!==g&amp;&amp;(n=i(w[t][e-1][0],w[t][e][0]),o=i(w[t][e+1][0],w[t][e][0]),w[t][e][3]=c(w[t][e-1][1],w[t][e][1],w[t][e+1][1],n,o));for(let t=0;t&lt;r;++t){w[0][t][2]=[],w[x][t][2]=[];for(let e=0;e&lt;4;++e)n=i(w[1][t][0],w[0][t][0]),o=i(w[x][t][0],w[x-1][t][0]),w[0][t][2][e]=n&gt;0?2*(w[1][t][1][e]-w[0][t][1][e])/n-w[1][t][2][e]:0,w[x][t][2][e]=o&gt;0?2*(w[x][t][1][e]-w[x-1][t][1][e])/o-w[x-1][t][2][e]:0}for(let t=0;t&lt;s;++t){w[t][0][3]=[],w[t][g][3]=[];for(let e=0;e&lt;4;++e)n=i(w[t][1][0],w[t][0][0]),o=i(w[t][g][0],w[t][g-1][0]),w[t][0][3][e]=n&gt;0?2*(w[t][1][1][e]-w[t][0][1][e])/n-w[t][1][3][e]:0,w[t][g][3][e]=o&gt;0?2*(w[t][g][1][e]-w[t][g-1][1][e])/o-w[t][g-1][3][e]:0}for(let s=0;s&lt;x;++s)for(let r=0;r&lt;g;++r){let n=i(w[s][r][0],w[s+1][r][0]),o=i(w[s][r+1][0],w[s+1][r+1][0]),c=i(w[s][r][0],w[s][r+1][0]),x=i(w[s+1][r][0],w[s+1][r+1][0]),g=[[],[],[],[]];for(let t=0;t&lt;4;++t){(d=[])[0]=w[s][r][1][t],d[1]=w[s+1][r][1][t],d[2]=w[s][r+1][1][t],d[3]=w[s+1][r+1][1][t],d[4]=w[s][r][2][t]*n,d[5]=w[s+1][r][2][t]*n,d[6]=w[s][r+1][2][t]*o,d[7]=w[s+1][r+1][2][t]*o,d[8]=w[s][r][3][t]*c,d[9]=w[s+1][r][3][t]*x,d[10]=w[s][r+1][3][t]*c,d[11]=w[s+1][r+1][3][t]*x,d[12]=0,d[13]=0,d[14]=0,d[15]=0,u=f(d);for(let e=0;e&lt;9;++e){g[t][e]=[];for(let s=0;s&lt;9;++s)g[t][e][s]=p(u,e/8,s/8),g[t][e][s]&gt;255?g[t][e][s]=255:g[t][e][s]&lt;0&amp;&amp;(g[t][e][s]=0)}}h=[];for(let t=3*s,e=3*s+4;t&lt;e;++t)h.push(this.nodes[t].slice(3*r,3*r+4));l=y(h);for(let s=0;s&lt;8;++s)for(let r=0;r&lt;8;++r)(a=new m(l[s][r],[[[g[0][s][r],g[1][s][r],g[2][s][r],g[3][s][r]],[g[0][s][r+1],g[1][s][r+1],g[2][s][r+1],g[3][s][r+1]]],[[g[0][s+1][r],g[1][s+1][r],g[2][s+1][r],g[3][s+1][r]],[g[0][s+1][r+1],g[1][s+1][r+1],g[2][s+1][r+1],g[3][s+1][r+1]]]])).paint(t,e)}}}transform(t){if(t instanceof x)for(let e=0,s=this.nodes.length;e&lt;s;++e)for(let s=0,r=this.nodes[0].length;s&lt;r;++s)this.nodes[e][s]=this.nodes[e][s].add(t);else if(t instanceof g)for(let e=0,s=this.nodes.length;e&lt;s;++e)for(let s=0,r=this.nodes[0].length;s&lt;r;++s)this.nodes[e][s]=this.nodes[e][s].transform(t)}scale(t){for(let e=0,s=this.nodes.length;e&lt;s;++e)for(let s=0,r=this.nodes[0].length;s&lt;r;++s)this.nodes[e][s]=this.nodes[e][s].scale(t)}}document.querySelectorAll(&quot;rect,circle,ellipse,path,text&quot;).forEach((r,n)=&gt;{let o=r.getAttribute(&quot;id&quot;);o||(o=&quot;patchjs_shape&quot;+n,r.setAttribute(&quot;id&quot;,o));const i=r.style.fill.match(/^url\(\s*&quot;?\s*#([^\s&quot;]+)&quot;?\s*\)/),a=r.style.stroke.match(/^url\(\s*&quot;?\s*#([^\s&quot;]+)&quot;?\s*\)/);if(i&amp;&amp;i[1]){const a=document.getElementById(i[1]);if(a&amp;&amp;&quot;meshgradient&quot;===a.nodeName){const i=r.getBBox();let l=document.createElementNS(s,&quot;canvas&quot;);d(l,{width:i.width,height:i.height});const c=l.getContext(&quot;2d&quot;);let u=c.createImageData(i.width,i.height);const f=new b(a);&quot;objectBoundingBox&quot;===a.getAttribute(&quot;gradientUnits&quot;)&amp;&amp;f.scale(new x(i.width,i.height));const p=a.getAttribute(&quot;gradientTransform&quot;);null!=p&amp;&amp;f.transform(h(p)),&quot;userSpaceOnUse&quot;===a.getAttribute(&quot;gradientUnits&quot;)&amp;&amp;f.transform(new x(-i.x,-i.y)),f.paintMesh(u.data,l.width),c.putImageData(u,0,0);const y=document.createElementNS(t,&quot;image&quot;);d(y,{width:i.width,height:i.height,x:i.x,y:i.y});let g=l.toDataURL();y.setAttributeNS(e,&quot;xlink:href&quot;,g),r.parentNode.insertBefore(y,r),r.style.fill=&quot;none&quot;;const w=document.createElementNS(t,&quot;use&quot;);w.setAttributeNS(e,&quot;xlink:href&quot;,&quot;#&quot;+o);const m=&quot;patchjs_clip&quot;+n,M=document.createElementNS(t,&quot;clipPath&quot;);M.setAttribute(&quot;id&quot;,m),M.appendChild(w),r.parentElement.insertBefore(M,r),y.setAttribute(&quot;clip-path&quot;,&quot;url(#&quot;+m+&quot;)&quot;),u=null,l=null,g=null}}if(a&amp;&amp;a[1]){const o=document.getElementById(a[1]);if(o&amp;&amp;&quot;meshgradient&quot;===o.nodeName){const i=parseFloat(r.style.strokeWidth.slice(0,-2))*(parseFloat(r.style.strokeMiterlimit)||parseFloat(r.getAttribute(&quot;stroke-miterlimit&quot;))||1),a=r.getBBox(),l=Math.trunc(a.width+i),c=Math.trunc(a.height+i),u=Math.trunc(a.x-i/2),f=Math.trunc(a.y-i/2);let p=document.createElementNS(s,&quot;canvas&quot;);d(p,{width:l,height:c});const y=p.getContext(&quot;2d&quot;);let g=y.createImageData(l,c);const w=new b(o);&quot;objectBoundingBox&quot;===o.getAttribute(&quot;gradientUnits&quot;)&amp;&amp;w.scale(new x(l,c));const m=o.getAttribute(&quot;gradientTransform&quot;);null!=m&amp;&amp;w.transform(h(m)),&quot;userSpaceOnUse&quot;===o.getAttribute(&quot;gradientUnits&quot;)&amp;&amp;w.transform(new x(-u,-f)),w.paintMesh(g.data,p.width),y.putImageData(g,0,0);const M=document.createElementNS(t,&quot;image&quot;);d(M,{width:l,height:c,x:0,y:0});let S=p.toDataURL();M.setAttributeNS(e,&quot;xlink:href&quot;,S);const k=&quot;pattern_clip&quot;+n,A=document.createElementNS(t,&quot;pattern&quot;);d(A,{id:k,patternUnits:&quot;userSpaceOnUse&quot;,width:l,height:c,x:u,y:f}),A.appendChild(M),o.parentNode.appendChild(A),r.style.stroke=&quot;url(#&quot;+k+&quot;)&quot;,g=null,p=null,S=null}}})}();
</script>
</svg>
